<?xml version="1.0" encoding="utf-8"?>
<!-- Generator: Adobe Illustrator 18.1.1, SVG Export Plug-In . SVG Version: 6.00 Build 0)  -->
<svg version="1.1" id="Layer_1" xmlns="http://www.w3.org/2000/svg" xmlns:xlink="http://www.w3.org/1999/xlink" x="0px" y="0px"
	 viewBox="0 0 127 123.6" enable-background="new 0 0 127 123.6" xml:space="preserve">
<path fill="#231F20" d="M110.6,3.7H78.2c-5.9,0-14.2,3.4-18.4,7.6L9.8,61.4c-4.2,4.2-4.2,11,0,15.2l38.6,38.6c4.2,4.2,11,4.2,15.2,0
	l50.1-50.1c4.2-4.2,7.6-12.5,7.6-18.4V14.4C121.3,8.5,116.5,3.7,110.6,3.7z M96.2,39.5c-5.9,0-10.8-4.8-10.8-10.8S90.3,18,96.2,18
	c5.9,0,10.8,4.8,10.8,10.8S102.2,39.5,96.2,39.5z"/>
</svg>
