<?xml version="1.0" encoding="utf-8"?>
<!-- Generator: Adobe Illustrator 18.1.1, SVG Export Plug-In . SVG Version: 6.00 Build 0)  -->
<svg version="1.1" id="Layer_1" xmlns="http://www.w3.org/2000/svg" xmlns:xlink="http://www.w3.org/1999/xlink" x="0px" y="0px"
	 viewBox="0 0 127 186.7" enable-background="new 0 0 127 186.7" xml:space="preserve">
<path fill="#231F20" d="M64.1,6.1C32.5,6.1,6.7,31.9,6.7,63.5c0,12.7,8.1,33.5,24.9,63.5c11.8,21.2,23.5,38.9,24,39.6l8.5,12.9
	l8.5-12.9c0.5-0.7,12.1-18.4,24-39.6c16.7-30,24.9-50.8,24.9-63.5C121.5,31.9,95.8,6.1,64.1,6.1z M64.1,92.8
	c-16.4,0-29.7-13.3-29.7-29.7c0-16.4,13.3-29.7,29.7-29.7s29.7,13.3,29.7,29.7C93.9,79.5,80.5,92.8,64.1,92.8z"/>
</svg>
