<?xml version="1.0" encoding="utf-8"?>
<!-- Generator: Adobe Illustrator 18.1.1, SVG Export Plug-In . SVG Version: 6.00 Build 0)  -->
<svg version="1.1" id="Layer_1" xmlns="http://www.w3.org/2000/svg" xmlns:xlink="http://www.w3.org/1999/xlink" x="0px" y="0px"
	 viewBox="0 0 189.4 186.7" enable-background="new 0 0 189.4 186.7" xml:space="preserve">
<g>
	<path d="M103,36.9H44.1c-4.3,0-7.8,3.5-7.8,7.8c0,4.3,3.5,7.9,7.8,7.9H103c4.3,0,7.8-3.5,7.8-7.9C110.8,40.4,107.3,36.9,103,36.9
		L103,36.9z M103,36.9"/>
	<path d="M110.8,74.2c0-4.3-3.5-7.9-7.8-7.9H44.1c-4.3,0-7.8,3.5-7.8,7.9c0,4.3,3.5,7.9,7.8,7.9H103
		C107.3,82.1,110.8,78.6,110.8,74.2L110.8,74.2z M110.8,74.2"/>
	<path d="M73.5,111.5c4.3,0,7.9-3.5,7.9-7.8c0-4.3-3.5-7.9-7.9-7.9H44.1c-4.3,0-7.8,3.5-7.8,7.9c0,4.3,3.5,7.8,7.8,7.8H73.5z
		 M73.5,111.5"/>
	<path d="M132.8,138.2l-8.2,5.4v19.5H22.5V21.9h102.1v31l15.7-27.2V14c0-4.3-3.5-7.8-7.9-7.8H14.6c-4.3,0-7.8,3.5-7.8,7.8v157.1
		c0,4.3,3.5,7.9,7.8,7.9h117.8c4.3,0,7.9-3.5,7.9-7.9v-43.3l-3.8,6.5C135.6,135.9,134.3,137.2,132.8,138.2L132.8,138.2z
		 M132.8,138.2"/>
	<path d="M179.2,42.5c-0.2-0.7-1.8-7.1-11.8-12.8c-10-5.8-16.3-4-17-3.8c-0.9,0.3-1.7,0.9-2.2,1.8l-49.1,85
		c-0.3,0.5-0.5,1.1-0.5,1.7l-1.8,30.7c-0.1,1.5,0.7,2.9,1.9,3.6c1.3,0.7,2.9,0.7,4.1-0.1l25.7-16.9c0.5-0.3,0.9-0.8,1.2-1.3l49.1-85
		C179.3,44.5,179.5,43.5,179.2,42.5L179.2,42.5z M112.7,135c-1.3-1.1-2.8-2-4.4-3c-1.6-0.9-3.2-1.7-4.8-2.3l0.6-9.2
		c2,0.3,5.1,1.1,8.9,3.3c3.8,2.2,6.1,4.4,7.3,6.1L112.7,135z M112.7,135"/>
	<path d="M61.5,147.8c0.3,1.6,2.1,2.1,3.3,2.6c1.2,0.5,2.6-0.5,3.6-0.9c6-2.9,14.1,0.5,20.5,0.5c3.8,0,3.8-5.9,0-5.9
		c-7.5,0-13.7-1.9-21.1-0.7c0-0.4-0.1-1-0.6-1.8c-1.4-2.4-3.2-3.1-4.9-2.8c-0.1-0.3-0.2-0.6-0.4-0.8c-0.5-0.8-1.1-1.1-1.8-1.3
		c2.1-3.6,3.4-7.4,2-10.5c-0.4-0.9-1.6-1.4-2.5-1.5c-3.9-0.1-7.3,4-9.8,6.5c-6.3,6.2-11.9,13.2-17.3,20.2c-2.3,3,2.8,5.9,5.1,3
		c4.8-6.2,9.9-12.2,15.3-17.9c-1.3,2.2-2.7,4.3-4.2,6.3c-2.1,3.2,2.9,6,5.1,3c0.5-0.8,1.2-1.4,1.9-1.9c-0.1,0.4-0.3,0.7-0.4,1.1
		c0,0,0,0,0,0c-0.1,0.2-0.2,0.5-0.3,0.7c-1.3,3.3,3.6,4.8,5.4,2.3c0.5-0.6,0.9-1.3,1.2-2C61.4,146.5,61.4,147.1,61.5,147.8
		L61.5,147.8z M61.5,147.8"/>
</g>
</svg>
