<?xml version="1.0" encoding="utf-8"?>
<!-- Generator: Adobe Illustrator 20.0.0, SVG Export Plug-In . SVG Version: 6.00 Build 0)  -->
<svg version="1.1" id="Layer_1" xmlns="http://www.w3.org/2000/svg" xmlns:xlink="http://www.w3.org/1999/xlink" x="0px" y="0px"
	 viewBox="0 0 189.4 217.6" style="enable-background:new 0 0 189.4 217.6;" xml:space="preserve">
<path d="M24.5,206.7c2.4,0,4.5-0.8,6.3-2.4l46.1-44.5c1.8-2,2.8-4.1,2.8-6.5s-0.9-4.5-2.8-6.3c-3.4-3.4-6.8-6.8-10.2-10
	c-2-1.8-4.3-2.8-6.9-2.9c-2.6-0.1-4.9,0.8-6.9,2.7l-25.4,24.6L7.5,180.5c-2,2.1-2.9,4.4-2.9,6.8c0.1,2.4,1.1,4.7,3.1,6.8l10.2,10
	C20,205.7,22.1,206.6,24.5,206.7z"/>
<path d="M157.6,22.9v12.6c-1.8-0.9-3.7-1.8-5.5-2.6c-7.6-3.2-15.5-4.7-23.6-4.7l0,0c-2.4,0-4.8,0.1-7.3,0.4
	c-6.4,0.7-12.5,2.4-18.3,5.1c-4.9,2.2-9.3,5-13.2,8.2c-3.9,3.2-7.4,6.9-10.2,11.1c-0.5,0.5-0.9,1.1-1.2,1.8h-24V38.5H31.8v114.3
	l-16.3,16V22.9H71v-2.6c0.1-4.3,1.6-7.9,4.5-10.8c2.9-2.9,6.5-4.3,10.9-4.3c4.4,0,8,1.4,10.9,4.3c2.9,2.9,4.4,6.5,4.5,10.8v2.6h27.8
	C146,22.9,155.3,22.9,157.6,22.9z"/>
<path d="M141.3,177.4v-33.7c5.8-1.3,11.2-3.3,16.3-6.1v55.4H47.5l16-15.6h38.8c22.7,0,35.7,0,38.8,0L141.3,177.4L141.3,177.4z"/>
<path d="M69.2,83.6c-0.1,2.5-0.1,5.1,0,7.7H50.5v-7.7h9.3C65.3,83.6,68.4,83.6,69.2,83.6z"/>
<path d="M50.5,101.3h20.3c0.7,2.6,1.5,5.2,2.6,7.7H50.5v-4.9C50.5,102.4,50.5,101.5,50.5,101.3z"/>
<path d="M79.1,119.9l-7.1,6.9H50.5v-7.7h28C78.7,119.3,78.9,119.6,79.1,119.9z"/>
<path d="M183.7,75.9c-2.4-11.6-7.8-21.3-16.3-29.4c-5-4.6-10.6-8.1-16.7-10.6c-9.5-3.9-19.2-5.3-29.4-4.1
	c-5.9,0.7-11.6,2.2-17.1,4.7C95,40.7,87.6,46.9,81.8,55c-7.6,11.2-10.6,23.5-9.1,37c1,10.1,4.5,19.3,10.2,27.6
	c0.4,0.5,0.3,0.9-0.2,1.2c-4.6,4.5-9.3,8.9-14,13.4c-0.5,0.3-0.5,0.7,0,1.2l8.9,8.5c0.5,0.4,0.9,0.6,1,0.6c0.1,0,0.4-0.2,0.8-0.6
	l13-12.8c0.4-0.4,0.9-0.4,1.4,0c3,2.1,6.3,3.9,9.8,5.5c11.6,5.3,23.6,6.6,36.1,4.1c12.5-2.5,23.1-8.7,31.6-18.5
	c8.9-10.2,13.5-22.1,13.6-35.7C185,82.9,184.6,79.3,183.7,75.9z M164.9,115.5c-8.3,9.6-18.7,15.1-31.3,16.5
	c-13.5,1.6-25.5-2-36-10.8c-9.2-7.6-14.6-17.3-16.2-29.2c-1.4-13.1,2-24.7,10.4-34.7c7.7-8.9,17.4-14.2,29-16
	c2.6-0.4,5.2-0.6,7.7-0.6c11.7,0,21.9,3.7,30.7,11.2C168,59.6,173.3,69,175,80.5C176.7,93.6,173.3,105.3,164.9,115.5z"/>
<g>
	<path d="M95.2,117.3c0.2,0.2,0.4,0.4,0.5,0.5c0,0,0.1,0,0.1,0c0.6,0,1.1-0.1,1.6-0.3c-0.5-0.2-1-0.3-1.6-0.3
		C95.6,117.3,95.4,117.3,95.2,117.3z"/>
	<path d="M95.7,115.7c0.3,0,0.6-0.1,0.8-0.3c0.2-0.2,0.4-0.6,0.6-1.1c0.2-0.5,0.3-1.6,0.3-3.2c0-1.6-0.1-2.7-0.2-3.3
		c-0.1-0.7-0.3-1.1-0.6-1.3c-0.3-0.2-0.5-0.3-0.8-0.3c-0.4,0-0.7,0.1-0.9,0.3c-0.2,0.2-0.4,0.6-0.6,1.2c-0.2,0.6-0.3,1.7-0.3,3.3
		s0.1,2.7,0.2,3.3c0.1,0.6,0.3,1,0.6,1.2C95.1,115.6,95.4,115.7,95.7,115.7z"/>
	<path d="M116,114.3c0.2-0.5,0.3-1.6,0.3-3.2c0-1.6-0.1-2.7-0.2-3.3c-0.1-0.7-0.3-1.1-0.5-1.3c-0.2-0.2-0.5-0.3-0.9-0.3
		c-0.3,0-0.5,0.1-0.8,0.3c-0.3,0.2-0.5,0.6-0.7,1.2c-0.2,0.6-0.3,1.7-0.3,3.3s0.1,2.7,0.3,3.3c0.2,0.6,0.4,1,0.6,1.2
		c0.2,0.2,0.5,0.3,0.8,0.3c0.3,0,0.6-0.1,0.8-0.3C115.6,115.2,115.8,114.9,116,114.3z"/>
	<path d="M115.4,128.5c0.2-0.1,0.4-0.5,0.6-1.1c0.2-0.6,0.3-1.7,0.3-3.3s-0.1-2.7-0.2-3.3c-0.1-0.6-0.3-1-0.5-1.2
		c-0.2-0.2-0.5-0.3-0.9-0.3c-0.3,0-0.5,0.1-0.8,0.3c-0.3,0.2-0.5,0.6-0.7,1.2c-0.2,0.6-0.3,1.6-0.3,3.2c0,1.5,0.1,2.6,0.3,3.2
		c0.2,0.5,0.4,0.9,0.5,1.1c0.4,0.1,0.7,0.2,1.1,0.3C115.1,128.7,115.3,128.6,115.4,128.5z"/>
	<path d="M136.3,119.8c-0.2-0.2-0.4-0.3-0.7-0.3c-0.4,0-0.7,0.1-0.9,0.3c-0.2,0.2-0.4,0.6-0.6,1.2c-0.2,0.6-0.3,1.6-0.3,3.2
		c0,1.5,0.1,2.6,0.2,3.2c0.1,0.6,0.3,1,0.6,1.2c0.3,0.2,0.5,0.3,0.8,0.3c0.3,0,0.5-0.1,0.8-0.2c0.3-0.1,0.5-0.5,0.7-1.1
		c0.2-0.6,0.3-1.7,0.3-3.3s-0.1-2.7-0.3-3.3C136.7,120.3,136.5,119.9,136.3,119.8z"/>
	<path d="M86.9,84c0-1.6-0.1-2.7-0.2-3.3c-0.1-0.6-0.3-1-0.5-1.3c-0.2-0.3-0.5-0.4-0.9-0.4c-0.3,0-0.5,0.1-0.8,0.3
		c-0.3,0.2-0.5,0.6-0.7,1.3c-0.2,0.7-0.3,1.7-0.3,3.3c0,1.5,0.1,2.6,0.3,3.2c0.2,0.6,0.4,1,0.6,1.2c0.2,0.2,0.5,0.3,0.8,0.3
		c0.3,0,0.6-0.1,0.8-0.3c0.2-0.2,0.4-0.6,0.6-1.1C86.8,86.6,86.9,85.6,86.9,84z"/>
	<path d="M116.3,117.6c-0.5-0.2-1-0.3-1.6-0.3c-0.5,0-1.1,0.1-1.5,0.3c0.5,0.2,1,0.3,1.5,0.3C115.3,117.9,115.8,117.8,116.3,117.6z"
		/>
	<path d="M164,90.6c0.3,0.1,0.6,0.1,0.9,0.1c0.7,0,1.4-0.2,2-0.5c-0.3-0.1-0.6-0.1-1-0.1C165.2,90.1,164.6,90.3,164,90.6z"/>
	<path d="M163.3,77.4c0.5,0.2,1,0.3,1.6,0.3c0.6,0,1.1-0.1,1.6-0.3c-0.5-0.2-1-0.3-1.6-0.3C164.4,77.1,163.8,77.2,163.3,77.4z"/>
	<path d="M164.1,66.4c-0.2,0.2-0.4,0.6-0.6,1.2c-0.2,0.6-0.3,1.6-0.3,3.2c0,1.5,0.1,2.6,0.3,3.3c0.2,0.7,0.4,1.1,0.6,1.3
		s0.5,0.3,0.8,0.3c0.3,0,0.6-0.1,0.8-0.3s0.4-0.6,0.6-1.1c0.2-0.5,0.3-1.6,0.3-3.3c0-1.6-0.1-2.8-0.3-3.3c-0.2-0.6-0.4-1-0.6-1.2
		c-0.2-0.2-0.4-0.3-0.7-0.3C164.5,66.1,164.2,66.2,164.1,66.4z"/>
	<path d="M144.5,46.8c0.1,0.7,0.3,1.1,0.6,1.3c0.3,0.2,0.5,0.3,0.8,0.3c0.3,0,0.5-0.1,0.8-0.3c0.3-0.2,0.5-0.6,0.7-1.2
		c0-0.1,0-0.1,0.1-0.2c-1-0.5-2-0.9-3.1-1.3C144.3,46,144.4,46.4,144.5,46.8z"/>
	<path d="M164.1,79.4c-0.2,0.2-0.4,0.6-0.6,1.3c-0.2,0.7-0.3,1.7-0.3,3.3c0,1.5,0.1,2.6,0.3,3.2c0.2,0.6,0.4,1,0.6,1.2
		c0.2,0.2,0.5,0.3,0.8,0.3c0.3,0,0.6-0.1,0.8-0.3c0.2-0.2,0.4-0.6,0.6-1.1c0.2-0.5,0.3-1.6,0.3-3.2c0-1.6-0.1-2.7-0.3-3.3
		c-0.2-0.6-0.4-1-0.6-1.3c-0.2-0.3-0.4-0.4-0.7-0.4C164.5,79.1,164.2,79.2,164.1,79.4z"/>
	<path d="M147.3,114.3c0.2-0.5,0.3-1.6,0.3-3.2c0-1.6-0.1-2.7-0.3-3.3c-0.2-0.7-0.4-1.1-0.6-1.3c-0.2-0.2-0.4-0.3-0.7-0.3
		c-0.4,0-0.7,0.1-0.9,0.3c-0.2,0.2-0.4,0.6-0.6,1.2c-0.2,0.6-0.3,1.7-0.3,3.3s0.1,2.7,0.2,3.3c0.1,0.6,0.3,1,0.6,1.2
		c0.3,0.2,0.5,0.3,0.8,0.3c0.3,0,0.5-0.1,0.8-0.3C146.9,115.2,147.1,114.9,147.3,114.3z"/>
	<path d="M164.2,96.9c0,1.5,0.1,2.6,0.3,3.3c0.2,0.7,0.4,1.1,0.6,1.3c0.2,0.2,0.5,0.3,0.8,0.3c0.3,0,0.6-0.1,0.8-0.3
		c0.2-0.2,0.4-0.6,0.6-1.2c0.2-0.6,0.3-1.7,0.3-3.3c0-1.6-0.1-2.7-0.3-3.3c-0.2-0.6-0.4-1-0.5-1.2c-0.1-0.2-0.4-0.3-0.8-0.3
		c-0.4,0-0.7,0.1-0.9,0.3c-0.2,0.2-0.4,0.6-0.6,1.2C164.2,94.3,164.2,95.4,164.2,96.9z"/>
	<path d="M133.8,43.5c0,1.5,0.1,2.6,0.2,3.3c0.1,0.7,0.3,1.1,0.6,1.3c0.3,0.2,0.5,0.3,0.8,0.3c0.3,0,0.5-0.1,0.8-0.3
		c0.3-0.2,0.5-0.6,0.7-1.2c0.2-0.6,0.3-1.7,0.3-3.3c0-0.1,0-0.2,0-0.2c-1.1-0.2-2.2-0.4-3.3-0.5C133.8,43.1,133.8,43.3,133.8,43.5z"
		/>
	<path d="M84.9,74.5c-0.3,0.9-0.5,1.8-0.7,2.7c0.2-0.1,0.4-0.1,0.7-0.1V74.5z"/>
	<path d="M85.3,90.7c-0.8,0-1.5-0.2-2-0.5c0,0.8,0.1,1.6,0.2,2.5c0.2-0.1,0.4-0.3,0.6-0.4C84.6,91.7,85,91.2,85.3,90.7z"/>
	<path d="M113.2,46.8c0.2,0.7,0.4,1.1,0.6,1.3c0.2,0.2,0.5,0.3,0.8,0.3c0.3,0,0.6-0.1,0.8-0.3c0.2-0.2,0.4-0.6,0.6-1.2
		c0.2-0.5,0.3-1.4,0.3-2.7c-1.1,0.3-2.2,0.6-3.3,1C113,45.8,113.1,46.4,113.2,46.8z"/>
	<path d="M113.9,50.3c0.3,0.1,0.6,0.1,0.9,0.1c0.8,0,1.6-0.1,2.2-0.6c-0.3-0.1-0.7-0.1-1-0.1C115.1,49.8,114.4,50,113.9,50.3z"/>
	<path d="M83.8,94.9c0.3,1.8,0.7,3.5,1.2,5.2v-6.2C84.6,94.2,84.2,94.6,83.8,94.9z"/>
	<path d="M114.1,56.5c0,1.5,0.1,2.6,0.3,3.3c0.2,0.7,0.4,1.1,0.6,1.3c0.2,0.2,0.5,0.3,0.8,0.3c0.3,0,0.6-0.1,0.8-0.3
		c0.2-0.2,0.4-0.6,0.6-1.1c0.2-0.5,0.3-1.6,0.3-3.2c0-1.6-0.1-2.7-0.3-3.3c-0.2-0.7-0.4-1.1-0.6-1.3c-0.2-0.2-0.4-0.3-0.7-0.3
		c-0.4,0-0.7,0.1-0.9,0.3c-0.2,0.2-0.4,0.6-0.6,1.2C114.2,54,114.1,55,114.1,56.5z"/>
	<path d="M126,106.6c-0.2-0.2-0.5-0.3-0.9-0.3c-0.3,0-0.5,0.1-0.8,0.3c-0.3,0.2-0.5,0.6-0.7,1.2c-0.2,0.6-0.3,1.7-0.3,3.3
		s0.1,2.7,0.3,3.3c0.2,0.6,0.4,1,0.6,1.2c0.2,0.2,0.5,0.3,0.8,0.3c0.3,0,0.6-0.1,0.8-0.3c0.2-0.2,0.4-0.6,0.6-1.1
		c0.2-0.5,0.3-1.6,0.3-3.2c0-1.6-0.1-2.7-0.2-3.3C126.4,107.2,126.2,106.8,126,106.6z"/>
	<path d="M116.3,84c0-1.6-0.1-2.7-0.2-3.3c-0.1-0.6-0.3-1-0.5-1.3c-0.2-0.3-0.5-0.4-0.9-0.4c-0.3,0-0.5,0.1-0.8,0.3
		c-0.3,0.2-0.5,0.6-0.7,1.3c-0.2,0.7-0.3,1.7-0.3,3.3c0,1.5,0.1,2.6,0.3,3.2c0.2,0.6,0.4,1,0.6,1.2c0.2,0.2,0.5,0.3,0.8,0.3
		c0.3,0,0.6-0.1,0.8-0.3c0.2-0.2,0.4-0.6,0.6-1.1C116.2,86.6,116.3,85.6,116.3,84z"/>
	<path d="M113.8,75.2c0.2,0.2,0.5,0.3,0.8,0.3c0.3,0,0.6-0.1,0.8-0.3c0.2-0.2,0.4-0.6,0.6-1.1c0.2-0.5,0.3-1.6,0.3-3.3
		c0-1.6-0.1-2.8-0.2-3.3c-0.1-0.6-0.3-1-0.5-1.2c-0.2-0.2-0.5-0.3-0.9-0.3c-0.3,0-0.5,0.1-0.8,0.3c-0.3,0.2-0.5,0.6-0.7,1.2
		c-0.2,0.6-0.3,1.6-0.3,3.2c0,1.5,0.1,2.6,0.3,3.3C113.4,74.6,113.6,75,113.8,75.2z"/>
	<path d="M94.9,75.2c0.2,0.2,0.5,0.3,0.8,0.3c0.3,0,0.6-0.1,0.9-0.3c0.3-0.2,0.5-0.6,0.7-1.1c0.2-0.5,0.3-1.6,0.3-3.3
		c0-1.6-0.1-2.8-0.3-3.3c-0.2-0.6-0.4-1-0.7-1.2c-0.3-0.2-0.5-0.3-0.8-0.3c-0.4,0-0.7,0.1-0.9,0.3c-0.2,0.2-0.4,0.6-0.6,1.2
		c-0.2,0.6-0.3,1.6-0.2,3.2c0.1,1.5,0.2,2.6,0.3,3.3C94.5,74.6,94.7,75,94.9,75.2z"/>
	<path d="M96.6,79.5c-0.3-0.3-0.5-0.4-0.8-0.4c-0.4,0-0.7,0.1-0.9,0.3s-0.4,0.6-0.6,1.3c-0.2,0.7-0.3,1.7-0.2,3.3
		c0.1,1.5,0.2,2.6,0.3,3.2c0.1,0.6,0.3,1,0.5,1.2c0.2,0.2,0.5,0.3,0.8,0.3c0.3,0,0.6-0.1,0.9-0.3c0.3-0.2,0.5-0.6,0.7-1.1
		c0.2-0.5,0.3-1.6,0.3-3.2c0-1.6-0.1-2.7-0.3-3.3C97.1,80.2,96.8,79.7,96.6,79.5z"/>
	<path d="M116.7,90.2c-0.3-0.1-0.5-0.1-0.8-0.1c-0.8,0-1.4,0.2-2,0.5c0.3,0.1,0.6,0.1,0.9,0.1C115.5,90.7,116.1,90.5,116.7,90.2z"/>
	<path d="M116.7,92.6c-0.3-0.2-0.5-0.3-0.8-0.3c-0.4,0-0.7,0.1-0.9,0.3c-0.2,0.2-0.4,0.6-0.6,1.2c-0.2,0.6-0.3,1.6-0.3,3.2
		c0,1.5,0.1,2.6,0.2,3.3c0.1,0.7,0.3,1.1,0.6,1.3c0.3,0.2,0.6,0.3,0.9,0.3c0.3,0,0.6-0.1,0.8-0.3c0.2-0.2,0.4-0.6,0.6-1.2
		c0.2-0.6,0.3-1.7,0.3-3.3c0-1.6-0.1-2.7-0.2-3.3C117.1,93.2,116.9,92.8,116.7,92.6z"/>
	<path d="M145,88.2c0.3,0.2,0.5,0.3,0.8,0.3c0.3,0,0.5-0.1,0.8-0.3c0.3-0.2,0.5-0.6,0.7-1.1c0.2-0.5,0.3-1.6,0.3-3.2
		c0-1.6-0.1-2.7-0.3-3.3c-0.2-0.6-0.4-1-0.6-1.3c-0.2-0.3-0.4-0.4-0.7-0.4c-0.4,0-0.7,0.1-0.9,0.3c-0.2,0.2-0.4,0.6-0.6,1.3
		c-0.2,0.7-0.3,1.7-0.3,3.3c0,1.5,0.1,2.6,0.2,3.2C144.6,87.6,144.8,88,145,88.2z"/>
	<path d="M171.5,80.5c0.3-0.1,0.6-0.2,0.8-0.3c-0.1-0.8-0.2-1.6-0.3-2.4c-0.7-3.3-1.6-6.5-2.9-9.4c0.1,0.8,0.2,1.6,0.2,2.6
		c0,2.6-0.4,4.3-1.2,5.3c-0.4,0.5-1,0.9-1.6,1.2c0.6,0.2,1.1,0.6,1.6,1.2c0.8,1,1.2,2.8,1.2,5.3c0,2.6-0.4,4.3-1.2,5.3
		c-0.3,0.4-0.7,0.8-1.2,1c0.9,0.2,1.6,0.7,2.2,1.5c0.8,1.1,1.2,2.8,1.2,5.3c0,2.5-0.4,4.3-1.2,5.3c-0.8,1.1-1.8,1.5-3.2,1.5
		c-1.3-0.1-2.4-0.6-3.2-1.6c-0.8-1-1.2-2.8-1.2-5.3c0-2.6,0.4-4.3,1.3-5.3c0.4-0.4,0.7-0.7,1.2-1c-0.9-0.2-1.6-0.6-2.2-1.4
		c-0.8-1-1.2-2.8-1.3-5.3c-0.1-2.6,0.3-4.3,1.2-5.3c0.5-0.6,1-0.9,1.7-1.2c-0.6-0.2-1.1-0.6-1.6-1.2c-0.8-1-1.2-2.8-1.3-5.3
		c-0.1-2.6,0.3-4.4,1.2-5.4c0.9-1,1.9-1.6,3.3-1.6c0.9,0,1.7,0.3,2.3,0.8c-0.2-0.4-0.5-0.8-0.7-1.2c-0.2,0-0.4,0-0.7,0
		c-1.3,0-2.4-0.5-3.2-1.5c-0.8-0.9-1.1-2.7-1.2-5.1c-1.7-1.8-3.5-3.5-5.5-5c-2.1-1.6-4.2-2.9-6.4-4.1c-0.2,0.4-0.4,0.8-0.6,1.1
		c-0.5,0.7-1.3,1.2-2.1,1.4v13.1c0,0-0.4,0-1.2,0h-1.2v-9.8c-0.8,0.9-2,1.6-3.2,2v-2.4c0.4-0.3,1.3-0.7,2.1-1.3
		c0.7-0.5,1.1-1.1,1.4-1.8c-0.8-0.2-1.5-0.7-2.1-1.4c-0.7-0.9-1.2-2.3-1.3-4.4c-0.5-0.2-1.1-0.3-1.6-0.4c0,2.3-0.4,4-1.2,5
		c-0.3,0.4-0.7,0.6-1.1,1h0.3v13.4c-0.4,0-0.8,0-1.6,0h-1.2v-9.8c-0.8,0.9-2,1.6-3.2,2v-2.4c0.4-0.3,1.3-0.7,2.1-1.3
		c0.6-0.5,1-1,1.4-1.6c-1.3-0.1-2.3-0.6-3.2-1.6c-0.9-1-1.3-2.8-1.3-5.3c0-0.3,0-0.6,0-0.8c-1.1-0.1-2.3-0.1-3.4,0V50h0.8v13.4
		c0,0-0.5,0-1.3,0h-1.1v-9.8c-1.2,0.9-2,1.6-3.6,2v-2.4c0.8-0.3,1.4-0.8,2.2-1.3c0.7-0.5,1.3-1.1,1.5-1.9h-0.1h-1.3v-7.2
		c-0.8,0.1-1.7,0.1-2.5,0.3c-1.1,0.1-2.3,0.3-3.4,0.5c0,0,0,0,0,0.1c0,2.5-0.4,4.3-1.2,5.3c-0.3,0.4-0.6,0.7-0.9,0.9
		c0.8,0.2,1.6,0.7,2.1,1.5c0.8,1.1,1.2,2.9,1.2,5.4s-0.4,4.3-1.2,5.3c-0.8,1-1.8,1.5-3.2,1.5c-1.3,0-2.4-0.5-3.2-1.5
		c-0.8-1-1.2-2.8-1.2-5.4c0-2.6,0.4-4.5,1.2-5.5c0.3-0.3,0.7-0.6,1.1-0.8c-0.9-0.2-1.7-0.7-2.3-1.5c-0.5-0.6-0.8-1.6-1-2.8
		c-4.9,2-9.3,4.9-13.3,8.7v8.7H97c-0.1,0-0.5,0-1.2,0h-1.4v-5.8c-0.1,0.1-0.2,0.2-0.3,0.3c-2.6,3-4.7,6.1-6.4,9.5v9.8h-0.2
		c-0.1,0-0.4,0-0.8,0c0.7,0.4,1.3,0.6,1.8,1.3c0.8,1,1.2,2.8,1.2,5.3s-0.4,4.3-1.2,5.3c-0.3,0.4-0.6,0.8-1,0.8h0.2v13.4h-0.2
		c-0.1,0-0.5,0-1.2,0h-0.3c0.1,0.3,0.2,0.5,0.3,0.8h1.3v3c0.3,0.6,0.6,1.3,1,1.9c0.9,1.5,1.8,2.9,2.9,4.2c-0.1-0.6-0.1-1.4-0.1-2.2
		c0-2.6,0.5-4.4,1.4-5.6c0.7-0.8,1.6-1.2,3-1.2c1.3,0,2.4,0.5,3.2,1.5c0.8,1,1.2,2.8,1.2,5.3c0,2.6-0.4,4.3-1.2,5.3
		c-0.4,0.6-1,0.9-1.6,1.2c0.6,0.3,1.1,0.7,1.6,1.3c0.5,0.6,0.8,1.5,1,2.6c1.5,1.1,3.1,2.1,4.7,3.1c2,1,4,1.9,6,2.7
		c-0.2-0.9-0.3-1.9-0.3-3.2c0-2.6,0.4-4.3,1.3-5.3c0.5-0.5,1-0.9,1.5-1.2c-0.6-0.2-1.2-0.6-1.6-1.2c-0.8-1-1.2-2.8-1.2-5.3
		c0-2.6,0.4-4.3,1.3-5.3c0.9-1,1.9-1.5,3.1-1.5c1.3,0,2.4,0.5,3.2,1.5c0.8,1,1.2,2.8,1.2,5.3c0,2.6-0.4,4.3-1.2,5.3
		c-0.4,0.6-1,0.9-1.6,1.2c0.6,0.3,1.1,0.7,1.6,1.3c0.8,1.1,1.2,2.8,1.2,5.3c0,2.5-0.4,4.2-1.2,5.2c0,0,0,0,0,0c2.3,0.5,4.7,0.8,7,1
		V121c-0.8,0.9-2,1.6-3.2,2v-2.4c0.4-0.1,1.3-0.5,2.1-1.1c0.6-0.5,1-1,1.3-1.7c-1.3,0-2.3-0.5-3.1-1.5c-0.8-1-1.2-2.8-1.2-5.3
		s0.5-4.4,1.4-5.6c0.7-0.8,1.6-1.2,3-1.2c1.3,0,2.4,0.5,3.2,1.5c0.8,1,1.2,2.7,1.2,5.3c0,2.6-0.4,4.3-1.2,5.3
		c-0.3,0.4-0.6,0.8-1,0.8h0.3v13.4c1.9,0,3.8,0,5.8-0.2c-0.4-0.2-0.8-0.5-1.1-0.9c-0.9-1-1.3-2.8-1.3-5.3c0-2.6,0.4-4.3,1.3-5.3
		c0.8-0.9,1.7-1.4,2.8-1.5V108c-0.8,0.9-2,1.6-3.2,2v-2.4c0.4-0.3,1.3-0.8,2.1-1.3c0.8-0.6,1.3-1.3,1.7-2.1h2.1v13.4
		c-0.4,0-0.4,0-0.6,0c0.5,0.4,1,0.7,1.4,1.2c0.8,1.1,1.2,2.9,1.2,5.4c0,2.5-0.4,4.2-1.2,5.2c-0.1,0.1-0.1,0.1-0.2,0.2
		c1.3-0.3,2.5-0.6,3.7-0.9c-0.5-1-0.8-2.6-0.8-4.6c0-2.6,0.5-4.4,1.4-5.4c0.4-0.5,0.9-0.9,1.5-1.1c-0.6-0.2-1.1-0.6-1.6-1.2
		c-0.9-1-1.3-2.8-1.3-5.3s0.5-4.4,1.4-5.6c0.7-0.8,1.7-1.2,3.2-1.2c1.3,0,2.4,0.5,3.2,1.5c0.8,1,1.2,2.8,1.2,5.3
		c0,2.6-0.4,4.3-1.2,5.3c-0.4,0.6-1,0.9-1.6,1.2c0.6,0.3,1.1,0.7,1.6,1.3c0.8,1.1,1.2,2.8,1.2,5.3c0,0.4,0,0.8,0,1.2
		c4.2-2.3,8-5.3,11.4-9c-0.8-1-1.2-2.8-1.3-5.3c-0.1-2.6,0.3-4.3,1.2-5.3c0.9-1,1.9-1.5,3.3-1.5c1.3,0,2.4,0.5,3.2,1.5
		c0.2,0.2,0.3,0.4,0.4,0.7c2.9-5.8,4.3-12.1,4.3-18.9c0-1.7-0.1-3.5-0.2-5.2c-0.3,0.1-0.7,0.2-1.1,0.3L171.5,80.5L171.5,80.5z
		 M99,89.2c-0.5,0.6-1,1-1.8,1.3v12.9H97c-0.1,0-0.5,0-1.2,0h-1.4v-9.5c-0.8,0.9-2,1.6-3.6,2v-2.4c0.8-0.3,1.7-0.7,2.5-1.3
		c0.6-0.5,1.2-1,1.5-1.6c-0.9-0.2-1.6-0.6-2.2-1.4c-0.8-1-1.2-2.8-1.2-5.3s0.4-4.3,1.2-5.3c0.4-0.5,1-0.9,1.6-1.2
		c-0.6-0.2-1.1-0.6-1.6-1.2c-0.8-1-1.2-2.8-1.2-5.3c0-2.6,0.4-4.4,1.2-5.4c0.8-1,1.8-1.6,3.2-1.6c1.3,0,2.4,0.5,3.2,1.6
		c0.8,1.1,1.2,2.9,1.2,5.4c0,2.6-0.4,4.3-1.2,5.3c-0.4,0.5-1,0.9-1.6,1.2c0.6,0.2,1.1,0.6,1.6,1.2c0.8,1,1.2,2.8,1.2,5.3
		S99.7,88.2,99,89.2z M119,102.3c-0.8,1.1-1.8,1.5-3.2,1.5c-1.3-0.1-2.4-0.6-3.2-1.6c-0.8-1-1.2-2.8-1.2-5.3c0-2.6,0.4-4.3,1.2-5.3
		c0.3-0.4,0.7-0.7,1.1-1c-0.9-0.2-1.7-0.6-2.3-1.4c-0.8-1-1.2-2.8-1.2-5.3c0-2.6,0.4-4.3,1.3-5.3c0.5-0.5,1-0.9,1.5-1.2
		c-0.6-0.2-1.2-0.6-1.6-1.2c-0.8-1-1.2-2.8-1.2-5.3c0-2.6,0.4-4.4,1.3-5.4c0.9-1,1.9-1.6,3.1-1.6c1.3,0,2.4,0.5,3.2,1.6
		c0.8,1.1,1.2,2.9,1.2,5.4c0,2.6-0.4,4.3-1.2,5.3c-0.4,0.5-1,0.9-1.6,1.2c0.6,0.2,1.1,0.6,1.6,1.2c0.8,1,1.2,2.8,1.2,5.3
		c0,2.6-0.4,4.3-1.2,5.3c-0.3,0.4-0.7,0.7-1.1,1c0.9,0.2,1.7,0.7,2.3,1.5c0.8,1.1,1.2,2.8,1.2,5.3C120.2,99.5,119.8,101.3,119,102.3
		z M128.3,76.3c-0.3,0.4-0.6,0.6-1,1h0.3v12.7h0.8v13.4c0,0-0.5,0-1.3,0h-1.1v-9.5c-1.2,0.9-2,1.6-3.6,2v-2.4
		c0.8-0.3,1.4-0.8,2.2-1.4c0.7-0.5,1.2-1,1.5-1.8h0h-1.3v-9.5c-0.8,0.9-2,1.5-3.2,1.8v-2.2c0.4-0.3,1.3-0.7,2.1-1.3
		c0.6-0.4,1-0.9,1.3-1.5c-1.3,0-2.3-0.5-3.1-1.5c-0.8-1-1.2-2.8-1.2-5.3c0-2.6,0.4-4.4,1.2-5.4c0.8-1,1.8-1.6,3.2-1.6
		c1.3,0,2.4,0.5,3.2,1.6c0.8,1.1,1.2,2.9,1.2,5.4C129.5,73.5,129.1,75.3,128.3,76.3z M138.8,89.2c-0.3,0.4-0.9,0.7-0.9,0.9v13.3
		c-0.4,0-0.8,0-1.6,0h-1.2v-9.5c-0.8,0.9-2,1.6-3.2,2v-2.4c0.4-0.3,1.3-0.7,2.1-1.3c0.6-0.4,1-0.9,1.4-1.5c-1.2,0-2.3-0.5-3.1-1.5
		c-0.9-1-1.3-2.8-1.3-5.3s0.4-4.3,1.3-5.3c0.8-0.9,1.7-1.4,2.8-1.5v-9.5c-0.8,0.9-2,1.6-3.2,2v-2.4c0.4-0.1,1.3-0.5,2.1-1.1
		c0.8-0.6,1.3-1.1,1.7-2.3h2.1v13.4c-0.4,0-0.6,0-1,0c0.7,0.4,1.3,0.7,1.8,1.3c0.8,1,1.2,2.8,1.2,5.3S139.6,88.2,138.8,89.2z
		 M149.2,76.2c-0.4,0.5-1,0.9-1.6,1.2c-0.5-0.2-1-0.3-1.6-0.3c-0.6,0-1.2,0.1-1.7,0.3c0.5,0.2,1.1,0.3,1.7,0.3
		c0.6,0,1.1-0.1,1.6-0.3c0.6,0.2,1.1,0.6,1.6,1.2c0.8,1,1.2,2.8,1.2,5.3s-0.4,4.3-1.2,5.3c-0.5,0.7-1.3,1.1-2.1,1.3v12.8
		c0,0-0.4,0-1.2,0h-1.2v-9.5c-0.8,0.9-2,1.6-3.2,2v-2.4c0.4-0.3,1.3-0.7,2.1-1.3c0.6-0.5,1-1,1.3-1.6c-0.8-0.2-1.5-0.7-2.1-1.3
		c-0.9-1-1.3-2.8-1.3-5.3s0.4-4.3,1.2-5.3c0.5-0.6,1-1,1.7-1.2c-0.6-0.2-1.1-0.6-1.6-1.2c-0.9-1-1.3-2.8-1.3-5.3
		c0-2.6,0.4-4.4,1.2-5.4c0.8-1,1.9-1.6,3.3-1.6c1.3,0,2.4,0.5,3.2,1.6c0.8,1.1,1.2,2.9,1.2,5.4C150.4,73.5,150,75.2,149.2,76.2z"/>
	<path d="M136.3,79.5c-0.2-0.3-0.4-0.4-0.7-0.4c-0.4,0-0.7,0.1-0.9,0.3s-0.4,0.6-0.6,1.3c-0.2,0.7-0.3,1.7-0.3,3.3
		c0,1.5,0.1,2.6,0.2,3.2c0.1,0.6,0.3,1,0.6,1.2c0.3,0.2,0.5,0.3,0.8,0.3c0.3,0,0.5-0.1,0.8-0.3c0.3-0.2,0.5-0.6,0.7-1.1
		c0.2-0.5,0.3-1.6,0.3-3.2c0-1.6-0.1-2.7-0.3-3.3C136.7,80.2,136.5,79.7,136.3,79.5z"/>
	<path d="M166.2,107.8c-0.2-0.7-0.4-1.1-0.6-1.3c-0.2-0.2-0.4-0.3-0.7-0.3c-0.4,0-0.7,0.1-0.9,0.3c-0.2,0.2-0.4,0.6-0.6,1.2
		c-0.2,0.6-0.3,1.7-0.3,3.3s0.1,2.7,0.3,3.3c0,0,0,0.1,0,0.1c1.1-1.4,2.1-2.8,3-4.3C166.5,109.1,166.4,108.3,166.2,107.8z"/>
	<path d="M126,66.4c-0.2-0.2-0.5-0.3-0.9-0.3c-0.3,0-0.5,0.1-0.8,0.3c-0.3,0.2-0.5,0.6-0.7,1.2c-0.2,0.6-0.3,1.6-0.3,3.2
		c0,1.5,0.1,2.6,0.3,3.3c0.2,0.7,0.4,1.1,0.6,1.3c0.2,0.2,0.5,0.3,0.8,0.3c0.3,0,0.6-0.1,0.8-0.3c0.2-0.2,0.4-0.6,0.6-1.1
		c0.2-0.5,0.3-1.6,0.3-3.3c0-1.6-0.1-2.8-0.2-3.3C126.4,67,126.2,66.6,126,66.4z"/>
	<path d="M146.7,66.4c-0.2-0.2-0.4-0.3-0.7-0.3c-0.4,0-0.7,0.1-0.9,0.3c-0.2,0.2-0.4,0.6-0.6,1.2c-0.2,0.6-0.3,1.6-0.3,3.2
		c0,1.5,0.1,2.6,0.2,3.3c0.1,0.7,0.3,1.1,0.6,1.3c0.3,0.2,0.5,0.3,0.8,0.3c0.3,0,0.5-0.1,0.8-0.3c0.3-0.2,0.5-0.6,0.7-1.1
		c0.2-0.5,0.3-1.6,0.3-3.3c0-1.6-0.1-2.8-0.3-3.3C147.1,67,146.9,66.6,146.7,66.4z"/>
	<path d="M147.6,124.2c0-1.6-0.1-2.7-0.3-3.3c-0.2-0.6-0.4-1-0.6-1.2c-0.2-0.2-0.4-0.3-0.7-0.3c-0.4,0-0.7,0.1-0.9,0.3
		c-0.2,0.2-0.4,0.6-0.6,1.2c-0.2,0.6-0.3,1.6-0.3,3.2c0,1.5,0.1,2.6,0.2,3.2c0.1,0.3,0.1,0.5,0.2,0.6c0.9-0.3,1.9-0.7,2.8-1.1
		C147.6,126.1,147.6,125.3,147.6,124.2z"/>
	<path d="M147.6,117.6c-0.5-0.2-1-0.3-1.6-0.3c-0.6,0-1.2,0.1-1.7,0.3c0.5,0.2,1.1,0.3,1.7,0.3C146.6,117.9,147.1,117.8,147.6,117.6
		z"/>
	<path d="M124.9,130.6h1.3h1.2h0.3v-0.1c-0.9,0-1.9-0.1-2.8-0.1V130.6z"/>
	<path d="M133.5,130.3c0.6,0.4,1.3,0.5,2.1,0.5c1.2,0,2.2-0.4,3-1.3c-1.5,0.3-3,0.5-4.6,0.7C133.8,130.3,133.6,130.3,133.5,130.3z"
		/>
	<path d="M168.1,65.5c-0.2-0.3-0.5-0.6-0.8-0.8c0.7,1.2,1.3,2.4,1.8,3.6C168.9,67.1,168.6,66.1,168.1,65.5z"/>
</g>
</svg>
