<?xml version="1.0" encoding="utf-8"?>
<!-- Generator: Adobe Illustrator 18.1.1, SVG Export Plug-In . SVG Version: 6.00 Build 0)  -->
<svg version="1.1" id="Layer_1" xmlns="http://www.w3.org/2000/svg" xmlns:xlink="http://www.w3.org/1999/xlink" x="0px" y="0px"
	 viewBox="0 0 127 96.8" enable-background="new 0 0 127 96.8" xml:space="preserve">
<path fill="#231F20" d="M63.5,68.9c-6,0-10.8,4.8-10.8,10.8c0,5.9,4.8,10.8,10.8,10.8c6,0,10.8-4.8,10.8-10.8
	C74.3,73.7,69.4,68.9,63.5,68.9z M121.3,31.3C106.9,14.2,85.8,4.4,63.5,4.4c-22.3,0-43.4,9.8-57.9,26.9C3.7,33.6,4,37,6.3,38.9
	c1,0.8,2.2,1.3,3.5,1.3c1.5,0,3.1-0.7,4.1-1.9c12.4-14.7,30.5-23.1,49.6-23.1c19.1,0,37.2,8.4,49.6,23.1c1.1,1.3,2.6,1.9,4.1,1.9
	c1.2,0,2.5-0.4,3.5-1.3C123,37,123.3,33.6,121.3,31.3z M63.5,25.9c-15.9,0-31,7-41.3,19.2c-1.9,2.3-1.6,5.7,0.7,7.6
	c1,0.8,2.2,1.3,3.5,1.3c1.5,0,3.1-0.7,4.1-1.9c8.3-9.8,20.3-15.4,33.1-15.4c12.8,0,24.8,5.6,33.1,15.4c1.1,1.3,2.6,1.9,4.1,1.9
	c1.2,0,2.5-0.4,3.5-1.3c2.3-1.9,2.6-5.3,0.7-7.6C94.5,32.9,79.4,25.9,63.5,25.9z M63.5,47.4c-9.6,0-18.6,4.2-24.8,11.5
	c-1.9,2.3-1.6,5.7,0.7,7.6c1,0.8,2.2,1.3,3.5,1.3c1.5,0,3.1-0.7,4.1-1.9c4.1-4.9,10.2-7.7,16.5-7.7c6.4,0,12.4,2.8,16.5,7.7
	c1.1,1.3,2.6,1.9,4.1,1.9c1.2,0,2.5-0.4,3.5-1.3c2.3-1.9,2.6-5.3,0.7-7.6C82.1,51.6,73.1,47.4,63.5,47.4z"/>
</svg>
