<?xml version="1.0" encoding="utf-8"?>
<!-- Generator: Adobe Illustrator 18.1.1, SVG Export Plug-In . SVG Version: 6.00 Build 0)  -->
<svg version="1.1" id="Layer_1" xmlns="http://www.w3.org/2000/svg" xmlns:xlink="http://www.w3.org/1999/xlink" x="0px" y="0px"
	 viewBox="0 0 189.4 165.2" enable-background="new 0 0 189.4 165.2" xml:space="preserve">
<path d="M120.3,102.4H21.9V20.7h131.9v56.3l12.8-0.2V14.4c0-3.5-2.9-6.4-6.4-6.4H15.6c-3.5,0-6.4,2.9-6.4,6.4v105.1
	c0,3.5,2.9,6.4,6.4,6.4h50.9L61,144.4h-6.6c-1.7,0-3,1.4-3,3v5c0,1.7,1.4,3,3,3h66.9c1.7,0,3-1.4,3-3v-5c0-1.7-1.4-3-3-3l0,0h-6.6
	l-5.4-18.5h11.1L120.3,102.4z M121.4,144.4"/>
<g>
	<path d="M155.6,89.7h-19.7c-1.4,0-2.6,1.2-2.6,2.6c0,1.5,1.2,2.6,2.6,2.6h19.7c1.4,0,2.6-1.2,2.6-2.6
		C158.2,90.9,157,89.7,155.6,89.7L155.6,89.7z M155.6,89.7"/>
	<path d="M158.2,102.2c0-1.5-1.2-2.6-2.6-2.6h-19.7c-1.4,0-2.6,1.2-2.6,2.6c0,1.5,1.2,2.6,2.6,2.6h19.7
		C157,104.8,158.2,103.6,158.2,102.2L158.2,102.2z M158.2,102.2"/>
	<path d="M145.7,114.7c1.5,0,2.6-1.2,2.6-2.6c0-1.5-1.2-2.6-2.6-2.6h-9.9c-1.4,0-2.6,1.2-2.6,2.6c0,1.4,1.2,2.6,2.6,2.6H145.7z
		 M145.7,114.7"/>
	<path d="M165.5,123.6l-2.8,1.8v6.5h-34.2V84.6h34.2V95l5.3-9.1V82c0-1.4-1.2-2.6-2.6-2.6h-39.5c-1.4,0-2.6,1.2-2.6,2.6v52.6
		c0,1.5,1.2,2.6,2.6,2.6h39.5c1.5,0,2.6-1.2,2.6-2.6v-14.5l-1.3,2.2C166.5,122.8,166.1,123.3,165.5,123.6L165.5,123.6z M165.5,123.6
		"/>
	<path d="M181.1,91.6c-0.1-0.2-0.6-2.4-4-4.3c-3.4-1.9-5.5-1.4-5.7-1.3c-0.3,0.1-0.6,0.3-0.7,0.6l-16.4,28.5
		c-0.1,0.2-0.2,0.4-0.2,0.6l-0.6,10.3c0,0.5,0.2,1,0.6,1.2c0.4,0.2,1,0.2,1.4,0l8.6-5.7c0.2-0.1,0.3-0.3,0.4-0.4L181,92.5
		C181.1,92.2,181.2,91.9,181.1,91.6L181.1,91.6z M158.8,122.6c-0.4-0.4-0.9-0.7-1.5-1c-0.5-0.3-1.1-0.6-1.6-0.8l0.2-3.1
		c0.7,0.1,1.7,0.4,3,1.1c1.3,0.7,2,1.5,2.5,2L158.8,122.6z M158.8,122.6"/>
	<path d="M141.7,126.8c0.1,0.5,0.7,0.7,1.1,0.9c0.4,0.2,0.9-0.2,1.2-0.3c2-1,4.7,0.2,6.9,0.2c1.3,0,1.3-2,0-2
		c-2.5,0-4.6-0.6-7.1-0.2c0-0.1,0-0.3-0.2-0.6c-0.5-0.8-1.1-1-1.6-0.9c0-0.1-0.1-0.2-0.1-0.3c-0.2-0.3-0.4-0.4-0.6-0.4
		c0.7-1.2,1.1-2.5,0.7-3.5c-0.1-0.3-0.5-0.5-0.8-0.5c-1.3,0-2.4,1.3-3.3,2.2c-2.1,2.1-4,4.4-5.8,6.8c-0.8,1,0.9,2,1.7,1
		c1.6-2.1,3.3-4.1,5.1-6c-0.4,0.7-0.9,1.4-1.4,2.1c-0.7,1.1,1,2,1.7,1c0.2-0.3,0.4-0.5,0.6-0.6c0,0.1-0.1,0.2-0.1,0.4c0,0,0,0,0,0
		c0,0.1-0.1,0.2-0.1,0.2c-0.4,1.1,1.2,1.6,1.8,0.8c0.2-0.2,0.3-0.4,0.4-0.7C141.6,126.4,141.6,126.6,141.7,126.8L141.7,126.8z
		 M141.7,126.8"/>
</g>
</svg>
