<?xml version="1.0" encoding="utf-8"?>
<!-- Generator: Adobe Illustrator 18.1.1, SVG Export Plug-In . SVG Version: 6.00 Build 0)  -->
<svg version="1.1" id="Layer_1" xmlns="http://www.w3.org/2000/svg" xmlns:xlink="http://www.w3.org/1999/xlink" x="0px" y="0px"
	 viewBox="0 0 476 95.4" enable-background="new 0 0 476 95.4" xml:space="preserve">
<g>
	<path d="M62.3,42c0,9.2-2.3,16.3-6.9,21.4S44.4,71,36,71c-8.5,0-15-2.5-19.6-7.6S9.6,51.2,9.6,41.9c0-9.3,2.3-16.4,6.9-21.4
		c4.6-5,11.1-7.5,19.6-7.5c8.4,0,14.8,2.5,19.4,7.6C60,25.7,62.3,32.8,62.3,42z M19.3,42c0,6.9,1.4,12.2,4.2,15.8
		c2.8,3.6,6.9,5.4,12.4,5.4c5.5,0,9.6-1.8,12.4-5.3c2.8-3.5,4.2-8.8,4.2-15.8c0-6.9-1.4-12.1-4.1-15.7C45.6,22.7,41.5,21,36,21
		c-5.5,0-9.7,1.8-12.5,5.4C20.7,29.9,19.3,35.1,19.3,42z"/>
	<path d="M93.5,71c-5.4,0-9.6-1.9-12.5-5.8h-0.5c0.4,3.6,0.5,5.8,0.5,6.5v17.4h-9V27.7h7.3c0.2,0.8,0.6,2.7,1.3,5.7h0.5
		c2.8-4.3,7.1-6.5,12.7-6.5c5.3,0,9.5,1.9,12.4,5.8c3,3.8,4.4,9.3,4.4,16.2c0,7-1.5,12.4-4.5,16.3C103,69.1,98.8,71,93.5,71z
		 M91.3,34.3c-3.6,0-6.2,1.1-7.9,3.2c-1.7,2.1-2.5,5.5-2.5,10.1v1.3c0,5.2,0.8,8.9,2.5,11.3c1.6,2.3,4.3,3.5,8,3.5
		c3.1,0,5.5-1.3,7.2-3.8c1.7-2.6,2.5-6.2,2.5-11c0-4.8-0.8-8.4-2.5-10.8C97,35.5,94.6,34.3,91.3,34.3z"/>
	<path d="M138.3,71c-6.6,0-11.8-1.9-15.5-5.8c-3.7-3.9-5.6-9.2-5.6-16c0-7,1.7-12.4,5.2-16.4c3.5-4,8.2-6,14.3-6
		c5.6,0,10.1,1.7,13.3,5.1c3.3,3.4,4.9,8.1,4.9,14.1V51h-28.4c0.1,4.1,1.2,7.3,3.3,9.5c2.1,2.2,5.1,3.3,8.9,3.3c2.5,0,4.9-0.2,7-0.7
		c2.2-0.5,4.5-1.3,7-2.4v7.4c-2.2,1.1-4.4,1.8-6.7,2.2C143.8,70.8,141.2,71,138.3,71z M136.7,33.7c-2.9,0-5.2,0.9-6.9,2.7
		c-1.7,1.8-2.8,4.5-3.1,8H146c-0.1-3.5-0.9-6.2-2.5-8C141.8,34.6,139.5,33.7,136.7,33.7z"/>
	<path d="M201.1,70.2H192V44.1c0-3.3-0.7-5.7-2-7.4c-1.3-1.6-3.4-2.4-6.3-2.4c-3.8,0-6.6,1.1-8.4,3.4c-1.8,2.3-2.7,6-2.7,11.4v21.2
		h-9V27.7h7.1l1.3,5.6h0.5c1.3-2,3.1-3.6,5.5-4.7c2.4-1.1,5-1.7,7.9-1.7c10.2,0,15.3,5.2,15.3,15.6V70.2z"/>
	<path d="M237,70.2l-16.3-47h-0.3c0.4,7,0.7,13.5,0.7,19.6v27.4h-8.4V14h13l15.6,44.8h0.2L257.6,14h13v56.3h-8.9V42.4
		c0-2.8,0.1-6.4,0.2-10.9c0.1-4.5,0.3-7.2,0.4-8.2H262l-16.9,46.9H237z"/>
	<path d="M309,70.2l-1.8-5.9h-0.3c-2.1,2.6-4.1,4.4-6.2,5.3s-4.7,1.4-8,1.4c-4.2,0-7.4-1.1-9.8-3.4c-2.3-2.3-3.5-5.5-3.5-9.6
		c0-4.4,1.6-7.7,4.9-9.9c3.3-2.2,8.2-3.5,14.9-3.7l7.4-0.2v-2.3c0-2.7-0.6-4.8-1.9-6.1c-1.3-1.3-3.2-2-5.9-2c-2.2,0-4.3,0.3-6.3,1
		c-2,0.6-3.9,1.4-5.8,2.3l-2.9-6.5c2.3-1.2,4.8-2.1,7.6-2.8c2.7-0.6,5.3-0.9,7.8-0.9c5.4,0,9.5,1.2,12.3,3.5
		c2.8,2.4,4.1,6.1,4.1,11.1v28.7H309z M295.6,64.1c3.3,0,5.9-0.9,7.9-2.8c2-1.8,3-4.4,3-7.7v-3.7l-5.5,0.2c-4.3,0.2-7.4,0.9-9.3,2.1
		c-1.9,1.3-2.9,3.2-2.9,5.8c0,1.9,0.6,3.4,1.7,4.4C291.6,63.6,293.3,64.1,295.6,64.1z"/>
	<path d="M347.7,71c-5.4,0-9.6-1.9-12.5-5.8h-0.5c0.4,3.6,0.5,5.8,0.5,6.5v17.4h-9V27.7h7.3c0.2,0.8,0.6,2.7,1.3,5.7h0.5
		c2.8-4.3,7.1-6.5,12.7-6.5c5.3,0,9.5,1.9,12.4,5.8c3,3.8,4.4,9.3,4.4,16.2c0,7-1.5,12.4-4.5,16.3C357.2,69.1,353,71,347.7,71z
		 M345.5,34.3c-3.6,0-6.2,1.1-7.9,3.2c-1.7,2.1-2.5,5.5-2.5,10.1v1.3c0,5.2,0.8,8.9,2.5,11.3c1.6,2.3,4.3,3.5,8,3.5
		c3.1,0,5.5-1.3,7.2-3.8c1.7-2.6,2.5-6.2,2.5-11c0-4.8-0.8-8.4-2.5-10.8C351.2,35.5,348.7,34.3,345.5,34.3z"/>
	<path d="M417.5,70.2h-10.7l-17.7-25.5l-5.4,4.4v21.1h-9.2V14h9.2v26.9c2.5-3.1,5-6,7.5-8.9l15.2-18h10.5
		c-9.8,11.5-16.9,19.8-21.1,24.7L417.5,70.2z"/>
	<path d="M422.9,16.4c0-1.6,0.4-2.9,1.3-3.7c0.9-0.9,2.1-1.3,3.8-1.3c1.6,0,2.8,0.4,3.7,1.3c0.9,0.9,1.3,2.1,1.3,3.7
		c0,1.5-0.4,2.8-1.3,3.6s-2.1,1.3-3.7,1.3c-1.6,0-2.9-0.4-3.8-1.3S422.9,17.9,422.9,16.4z M432.5,70.2h-9V27.7h9V70.2z"/>
	<path d="M459.6,63.7c2.2,0,4.4-0.3,6.6-1v6.8c-1,0.4-2.3,0.8-3.9,1.1c-1.6,0.3-3.2,0.4-4.9,0.4c-8.6,0-12.9-4.5-12.9-13.5V34.5
		h-5.8v-4l6.2-3.3l3.1-9h5.6v9.5h12.1v6.9h-12.1v22.8c0,2.2,0.5,3.8,1.6,4.8C456.4,63.2,457.9,63.7,459.6,63.7z"/>
</g>
</svg>
